<svg version="1.1" xmlns="http://www.w3.org/2000/svg" viewBox="0 0 2022.4285714285716 1381.9999999999995" width="2022.4285714285716" height="1381.9999999999995">
  <!-- svg-source:excalidraw -->
  
  <defs>
    <style class="style-fonts">
      @font-face {
        font-family: "Virgil";
        src: url("https://excalidraw.com/Virgil.woff2");
      }
      @font-face {
        font-family: "Cascadia";
        src: url("https://excalidraw.com/Cascadia.woff2");
      }
    </style>
  </defs>
  <rect x="0" y="0" width="2022.4285714285716" height="1381.9999999999995" fill="#ffffff"></rect><g stroke-linecap="round" transform="translate(10 10) rotate(0 74.5 35)"><path d="M17.5 0 M17.5 0 C39.86 1.14, 62.92 1.05, 131.5 0 M17.5 0 C41.34 -0.08, 66.91 -0.86, 131.5 0 M131.5 0 C143.45 -1.12, 147.48 6.31, 149 17.5 M131.5 0 C144.64 0.24, 148.78 7.87, 149 17.5 M149 17.5 C148.7 24.67, 150.82 34, 149 52.5 M149 17.5 C148.82 27.93, 147.82 38.81, 149 52.5 M149 52.5 C149.91 62.33, 142.01 68.05, 131.5 70 M149 52.5 C150.21 62.93, 143 68.11, 131.5 70 M131.5 70 C101.98 70.69, 68.01 69.43, 17.5 70 M131.5 70 C102.03 69.5, 74.19 69.05, 17.5 70 M17.5 70 C7.53 69.99, -1.86 65.83, 0 52.5 M17.5 70 C7.48 69.94, 0.78 64.99, 0 52.5 M0 52.5 C-1.21 44.31, 1.67 32.31, 0 17.5 M0 52.5 C-0.49 40.95, 0.35 27.96, 0 17.5 M0 17.5 C-1.91 4.43, 4.78 0.96, 17.5 0 M0 17.5 C-0.01 4.12, 4.38 -0.27, 17.5 0" stroke="#000000" stroke-width="1" fill="none"></path></g><g transform="translate(40.63005065917969 33) rotate(0 43.86994934082031 12)"><text x="43.86994934082031" y="0" font-family="Virgil, Segoe UI Emoji" font-size="20px" fill="#000000" text-anchor="middle" style="white-space: pre;" direction="ltr" dominant-baseline="text-before-edge">invite-link</text></g><g stroke-linecap="round" transform="translate(474 110) rotate(0 97 68.5)"><path d="M32 0 M32 0 C76.18 1.41, 117.5 -1.42, 162 0 M32 0 C61.86 -1.37, 91.1 -0.74, 162 0 M162 0 C181.63 -1.18, 194.01 11.41, 194 32 M162 0 C183.41 -1.25, 191.87 11.18, 194 32 M194 32 C192.58 45.39, 192.47 62.57, 194 105 M194 32 C194.27 49.33, 195.68 67.02, 194 105 M194 105 C194.43 128.03, 185.16 136.17, 162 137 M194 105 C192.78 125.61, 182.16 135.77, 162 137 M162 137 C121.2 138.34, 83.69 135.18, 32 137 M162 137 C113.22 137.96, 64.84 137.59, 32 137 M32 137 C8.96 136.06, -0.8 125.28, 0 105 M32 137 C8.61 137.82, 1.94 127.35, 0 105 M0 105 C-1.86 74.54, 0.93 49.42, 0 32 M0 105 C0.11 83.5, -0.02 62.84, 0 32 M0 32 C-0.18 10.09, 9.26 -1.36, 32 0 M0 32 C-1.46 12.62, 12.25 -0.7, 32 0" stroke="#000000" stroke-width="1" fill="none"></path></g><g transform="translate(516.0100708007812 166.5) rotate(0 54.98992919921875 12)"><text x="54.98992919921875" y="0" font-family="Virgil, Segoe UI Emoji" font-size="20px" fill="#000000" text-anchor="middle" style="white-space: pre;" direction="ltr" dominant-baseline="text-before-edge">signup page</text></g><g stroke-linecap="round" transform="translate(481.7142857142858 994.9999999999999) rotate(0 97.5 66)"><path d="M32 0 M32 0 C81.96 2.9, 128.87 3.09, 163 0 M32 0 C63.56 0.61, 93.67 0.16, 163 0 M163 0 C182.93 -1.36, 193.73 12.36, 195 32 M163 0 C185.92 -0.7, 195.49 9.5, 195 32 M195 32 C195.03 48.31, 197.11 65.7, 195 100 M195 32 C194.72 47.65, 196.38 63.32, 195 100 M195 100 C196.76 121.08, 183.58 131.36, 163 132 M195 100 C196.94 122.66, 184.62 132.18, 163 132 M163 132 C134.75 131.72, 107.71 132.48, 32 132 M163 132 C127.01 131.71, 92.38 132.84, 32 132 M32 132 C9.3 131.74, 1.33 119.47, 0 100 M32 132 C10.3 131.61, 2.02 123.06, 0 100 M0 100 C0.39 85.37, -1.95 66.52, 0 32 M0 100 C-0.17 81.48, 0.89 60.93, 0 32 M0 32 C0.16 11.94, 8.86 -1.03, 32 0 M0 32 C-1.49 11.01, 8.72 -1.17, 32 0" stroke="#000000" stroke-width="1" fill="none"></path></g><g transform="translate(532.09434400286 1049) rotate(0 47.11994171142578 12)"><text x="47.11994171142578" y="0" font-family="Virgil, Segoe UI Emoji" font-size="20px" fill="#000000" text-anchor="middle" style="white-space: pre;" direction="ltr" dominant-baseline="text-before-edge">login page</text></g><g stroke-linecap="round" transform="translate(16.428571428571388 1005.4285714285713) rotate(0 73.5 36.49999999999994)"><path d="M18.25 0 M18.25 0 C59.32 1.59, 103.92 -0.59, 128.75 0 M18.25 0 C47.17 0.79, 76.78 1, 128.75 0 M128.75 0 C139.09 0.42, 148.45 7.53, 147 18.25 M128.75 0 C142.07 -0.39, 147.29 4.91, 147 18.25 M147 18.25 C147.04 28.63, 148.05 34.38, 147 54.75 M147 18.25 C148.23 29.21, 147.38 42.63, 147 54.75 M147 54.75 C148.4 66.5, 140.26 74.55, 128.75 73 M147 54.75 C148.54 68.01, 142.04 71.39, 128.75 73 M128.75 73 C101.64 72.41, 75.06 73.01, 18.25 73 M128.75 73 C94.05 73.7, 58.01 74.3, 18.25 73 M18.25 73 C5.31 71.72, -1.36 68.49, 0 54.75 M18.25 73 C5.83 72.9, -2.28 69.02, 0 54.75 M0 54.75 C-0.42 45.41, 2.17 37.64, 0 18.25 M0 54.75 C0.19 41.35, 0.48 29.44, 0 18.25 M0 18.25 C0.43 6.29, 6.34 -1.66, 18.25 0 M0 18.25 C1.42 8.31, 6.27 0.83, 18.25 0" stroke="#000000" stroke-width="1" fill="none"></path></g><g transform="translate(23.578656877790138 1017.9285714285713) rotate(0 66.34991455078125 23.999999999999943)"><text x="66.34991455078125" y="0" font-family="Virgil, Segoe UI Emoji" font-size="20px" fill="#000000" text-anchor="middle" style="white-space: pre;" direction="ltr" dominant-baseline="text-before-edge">page requiring</text><text x="66.34991455078125" y="24" font-family="Virgil, Segoe UI Emoji" font-size="20px" fill="#000000" text-anchor="middle" style="white-space: pre;" direction="ltr" dominant-baseline="text-before-edge">account</text></g><g stroke-linecap="round"><g transform="translate(160 46) rotate(0 159.98786525032946 65.56791440011001)"><path d="M-0.32 -0.05 C52.78 21.94, 264.66 109.26, 318.07 131.16 M1.71 -1.12 C55.22 21.06, 267.25 110.02, 320.3 132.26" stroke="#000000" stroke-width="1" fill="none"></path></g><g transform="translate(160 46) rotate(0 159.98786525032946 65.56791440011001)"><path d="M290.25 129.27 C296.63 133.17, 304.64 132.32, 319.91 132.36 M289.71 130.18 C298.41 132.27, 306.11 130.92, 319.64 132.66" stroke="#000000" stroke-width="1" fill="none"></path></g><g transform="translate(160 46) rotate(0 159.98786525032946 65.56791440011001)"><path d="M298.19 110.35 C302.41 119.09, 308.37 123.11, 319.91 132.36 M297.65 111.25 C304.51 117.99, 310.24 121.32, 319.64 132.66" stroke="#000000" stroke-width="1" fill="none"></path></g></g><mask></mask><g stroke-linecap="round"><g transform="translate(530.15335383144 251.00000000000006) rotate(0 5.5188441176931065 370.89227822399226)"><path d="M-0.25 -0.94 C1.57 122.64, 9.19 617.74, 11.29 741.81 M1.81 1.19 C3.46 124.84, 8.66 619.35, 10.39 742.72" stroke="#000000" stroke-width="1" fill="none"></path></g><g transform="translate(530.15335383144 251.00000000000006) rotate(0 5.5188441176931065 370.89227822399226)"><path d="M-1.77 714.81 C1.38 725.87, 7.65 735.12, 8.53 741.87 M-0.88 714.3 C2.37 724.47, 6.44 734.04, 10.58 742.96" stroke="#000000" stroke-width="1" fill="none"></path></g><g transform="translate(530.15335383144 251.00000000000006) rotate(0 5.5188441176931065 370.89227822399226)"><path d="M18.75 714.56 C15.14 725.66, 14.66 734.99, 8.53 741.87 M19.64 714.05 C16.13 724.23, 13.45 733.88, 10.58 742.96" stroke="#000000" stroke-width="1" fill="none"></path></g></g><mask></mask><g stroke-linecap="round"><g transform="translate(607.5984110554646 992.9999999999999) rotate(0 -5.315514971670666 -370.6148353999759)"><path d="M-0.22 -1.14 C-1.99 -124.48, -8.2 -617.05, -10.08 -740.33 M-1.8 0.87 C-3.66 -122.79, -8.63 -618.71, -10.41 -742.1" stroke="#000000" stroke-width="1" fill="none"></path></g><g transform="translate(607.5984110554646 992.9999999999999) rotate(0 -5.315514971670666 -370.6148353999759)"><path d="M-1.71 -712.06 C-2.26 -724.1, -6.77 -732.03, -10.69 -743.63 M-0.56 -713.4 C-2.62 -724.54, -7.56 -733.33, -10.21 -741.55" stroke="#000000" stroke-width="1" fill="none"></path></g><g transform="translate(607.5984110554646 992.9999999999999) rotate(0 -5.315514971670666 -370.6148353999759)"><path d="M-22.23 -711.81 C-15.75 -723.9, -13.24 -731.91, -10.69 -743.63 M-21.08 -713.16 C-15.88 -724.35, -13.56 -733.23, -10.21 -741.55" stroke="#000000" stroke-width="1" fill="none"></path></g></g><mask></mask><g transform="translate(416 277) rotate(0 55.529937744140625 12)"><text x="0" y="0" font-family="Virgil, Segoe UI Emoji" font-size="20px" fill="#000000" text-anchor="start" style="white-space: pre;" direction="ltr" dominant-baseline="text-before-edge">direct links:</text></g><g stroke-linecap="round" transform="translate(751.4285714285713 11.428571428571388) rotate(0 125 55)"><path d="M157.5 14 M157.5 14 C168.3 20.51, 184.31 25.28, 218.5 42 M157.5 14 C178.33 23.04, 197.9 33.4, 218.5 42 M218.5 42 C251.05 56.14, 248.8 57.17, 218.5 70 M218.5 42 C251.11 57.23, 250.11 54.03, 218.5 70 M218.5 70 C193.31 81.5, 171.17 88.98, 157.5 96 M218.5 70 C202.83 76.78, 187.45 81.64, 157.5 96 M157.5 96 C124.75 109.41, 124.03 111.34, 94.5 96 M157.5 96 C126.4 110.31, 124.89 112.07, 94.5 96 M94.5 96 C78.56 87.08, 62.48 81.22, 31.5 70 M94.5 96 C74.29 87.54, 53.49 78.91, 31.5 70 M31.5 70 C1.12 55.81, 1.18 54.24, 31.5 42 M31.5 70 C-0.78 56.77, 0.04 55.44, 31.5 42 M31.5 42 C47.17 36.01, 63.44 27.16, 94.5 14 M31.5 42 C55.4 30.34, 80.13 19.97, 94.5 14 M94.5 14 C125.15 -0.27, 124.54 -0.63, 157.5 14 M94.5 14 C127.86 -1.39, 124.14 0.93, 157.5 14" stroke="#000000" stroke-width="1" fill="none"></path></g><g transform="translate(821.6486413138252 54.42857142857139) rotate(0 54.779930114746094 12)"><text x="54.779930114746094" y="0" font-family="Virgil, Segoe UI Emoji" font-size="20px" fill="#000000" text-anchor="middle" style="white-space: pre;" direction="ltr" dominant-baseline="text-before-edge">user-exists</text></g><g stroke-linecap="round"><g transform="translate(666 191) rotate(0 46.488506448892906 -64.77103661501314)"><path d="M0.93 0.41 C16.25 -21.03, 75.77 -106.8, 90.89 -128.23 M-0.04 -0.41 C15.73 -22.23, 77.89 -108.34, 93.02 -129.96" stroke="#000000" stroke-width="1" fill="none"></path></g><g transform="translate(666 191) rotate(0 46.488506448892906 -64.77103661501314)"><path d="M85.71 -102.9 C87.89 -107.82, 89.63 -111.49, 94.79 -130.15 M84.61 -101.35 C86.51 -107.86, 89.72 -116.14, 92.31 -129.94" stroke="#000000" stroke-width="1" fill="none"></path></g><g transform="translate(666 191) rotate(0 46.488506448892906 -64.77103661501314)"><path d="M68.99 -114.8 C74.77 -117.32, 80.07 -118.46, 94.79 -130.15 M67.9 -113.25 C74.13 -116.62, 81.59 -121.88, 92.31 -129.94" stroke="#000000" stroke-width="1" fill="none"></path></g></g><mask></mask><g stroke-linecap="round" transform="translate(1076.7142857142846 13.571428571428555) rotate(0 113.5 57.5)"><path d="M142.5 14.5 M142.5 14.5 C163.97 23.24, 182.93 34.06, 198.5 43.5 M142.5 14.5 C159.37 22.17, 177.65 31.33, 198.5 43.5 M198.5 43.5 C228.97 56.87, 226.27 59.6, 198.5 72.5 M198.5 43.5 C225.05 59.21, 228.9 55.89, 198.5 72.5 M198.5 72.5 C186.95 77.7, 174.6 84.16, 142.5 100.5 M198.5 72.5 C185.05 78.21, 171.1 85.59, 142.5 100.5 M142.5 100.5 C114.48 116.32, 113.82 115.85, 85.5 100.5 M142.5 100.5 C113.88 112.94, 112.08 115.38, 85.5 100.5 M85.5 100.5 C71.73 92.93, 61.72 90.2, 28.5 72.5 M85.5 100.5 C72.89 93.63, 60.74 89.14, 28.5 72.5 M28.5 72.5 C0.34 56.15, 0.1 59.56, 28.5 43.5 M28.5 72.5 C-1.02 55.76, 1.93 56.82, 28.5 43.5 M28.5 43.5 C46.12 32.53, 66 23.37, 85.5 14.5 M28.5 43.5 C39.77 37.67, 51.68 32.21, 85.5 14.5 M85.5 14.5 C113.03 -1.38, 113.6 -0.47, 142.5 14.5 M85.5 14.5 C115.53 1.25, 112.61 1.63, 142.5 14.5" stroke="#000000" stroke-width="1" fill="none"></path></g><g transform="translate(1141.3843449183862 47.321428571428555) rotate(0 49.07994079589844 24)"><text x="49.07994079589844" y="0" font-family="Virgil, Segoe UI Emoji" font-size="20px" fill="#000000" text-anchor="middle" style="white-space: pre;" direction="ltr" dominant-baseline="text-before-edge">password </text><text x="49.07994079589844" y="24" font-family="Virgil, Segoe UI Emoji" font-size="20px" fill="#000000" text-anchor="middle" style="white-space: pre;" direction="ltr" dominant-baseline="text-before-edge">supplied</text></g><g stroke-linecap="round" transform="translate(1392.4285714285713 13.428571428571445) rotate(0 113.57142857142856 58.14285714285714)"><path d="M142.5 14.75 M142.5 14.75 C158.9 24.04, 173.65 31.51, 198.64 44.25 M142.5 14.75 C159.78 24.39, 175.73 32.4, 198.64 44.25 M198.64 44.25 C227.32 59.42, 227.35 60.17, 198.64 73.75 M198.64 44.25 C228.69 58.09, 227.31 58.21, 198.64 73.75 M198.64 73.75 C178.8 83.65, 156.71 93.58, 142.5 101.54 M198.64 73.75 C183.58 81.33, 168.39 88.21, 142.5 101.54 M142.5 101.54 C113.44 114.57, 115.24 117.46, 85.5 101.54 M142.5 101.54 C114.36 115.39, 113.28 114.12, 85.5 101.54 M85.5 101.54 C68.67 91.18, 53.35 83.5, 28.5 73.75 M85.5 101.54 C67.4 92.2, 50.16 83.97, 28.5 73.75 M28.5 73.75 C0.17 57.69, -1.32 60.54, 28.5 44.25 M28.5 73.75 C0.59 58.11, -2.12 59.82, 28.5 44.25 M28.5 44.25 C52.65 33.32, 75.09 19.64, 85.5 14.75 M28.5 44.25 C50.67 32.43, 71.78 20.42, 85.5 14.75 M85.5 14.75 C114.53 0.64, 112.82 -0.27, 142.5 14.75 M85.5 14.75 C114.26 1.42, 112.47 -0.24, 142.5 14.75" stroke="#000000" stroke-width="1" fill="none"></path></g><g transform="translate(1457.1343449183871 47.500000000000014) rotate(0 49.07994079589844 24)"><text x="49.07994079589844" y="0" font-family="Virgil, Segoe UI Emoji" font-size="20px" fill="#000000" text-anchor="middle" style="white-space: pre;" direction="ltr" dominant-baseline="text-before-edge">password </text><text x="49.07994079589844" y="24" font-family="Virgil, Segoe UI Emoji" font-size="20px" fill="#000000" text-anchor="middle" style="white-space: pre;" direction="ltr" dominant-baseline="text-before-edge">correct</text></g><g stroke-linecap="round"><g transform="translate(989.5714285714289 69.14285714285717) rotate(0 47.39761777931682 0.20639683526937702)"><path d="M1.08 0.04 C16.3 -0.17, 76.93 -0.12, 92.22 -0.09 M0.19 -0.98 C15.72 -0.48, 79.3 0.96, 94.6 1.39" stroke="#000000" stroke-width="1" fill="none"></path></g><g transform="translate(989.5714285714289 69.14285714285717) rotate(0 47.39761777931682 0.20639683526937702)"><path d="M66.23 9.88 C76.64 7.02, 87.88 1.73, 94.01 -0.18 M67.14 10.72 C72.91 9.47, 80.56 6.17, 94.26 1.76" stroke="#000000" stroke-width="1" fill="none"></path></g><g transform="translate(989.5714285714289 69.14285714285717) rotate(0 47.39761777931682 0.20639683526937702)"><path d="M66.75 -10.63 C77.16 -5.75, 88.2 -3.31, 94.01 -0.18 M67.66 -9.8 C73.38 -5.99, 80.9 -4.25, 94.26 1.76" stroke="#000000" stroke-width="1" fill="none"></path></g></g><mask></mask><g stroke-linecap="round"><g transform="translate(1300.1907737286765 75.99082891656104) rotate(0 49.21852619276035 -4.045501344850976)"><path d="M-0.4 0.42 C15.5 -0.61, 80.27 -5.53, 96.52 -6.99 M1.58 -0.4 C17.78 -1.67, 83.06 -7.4, 98.84 -8.51" stroke="#000000" stroke-width="1" fill="none"></path></g><g transform="translate(1300.1907737286765 75.99082891656104) rotate(0 49.21852619276035 -4.045501344850976)"><path d="M72.27 2.73 C84.2 -1.08, 92.64 -6.06, 98.41 -9.64 M71.95 3.01 C79.69 1.18, 87.03 -4, 99.47 -8.4" stroke="#000000" stroke-width="1" fill="none"></path></g><g transform="translate(1300.1907737286765 75.99082891656104) rotate(0 49.21852619276035 -4.045501344850976)"><path d="M70.62 -17.73 C83.06 -13.53, 92.15 -10.52, 98.41 -9.64 M70.3 -17.44 C78.36 -13.28, 86.18 -12.46, 99.47 -8.4" stroke="#000000" stroke-width="1" fill="none"></path></g></g><mask></mask><g stroke-linecap="round" transform="translate(771.0000000000002 492) rotate(0 123.57142857142856 51.42857142857139)"><path d="M155 13 M155 13 C166.96 16.66, 181.74 25.04, 216.14 39 M155 13 C172.63 21.84, 191.49 29.22, 216.14 39 M216.14 39 C246.44 51.02, 247.01 52.82, 216.14 65 M216.14 39 C246.31 53.86, 246.77 52.39, 216.14 65 M216.14 65 C195.45 72.19, 172.58 81.28, 155 89.86 M216.14 65 C191.79 75.04, 167.91 83.59, 155 89.86 M155 89.86 C125.83 100.91, 122.88 104.28, 93 89.86 M155 89.86 C122.94 103.89, 122.85 101.66, 93 89.86 M93 89.86 C74.45 82.09, 57.34 76.09, 31 65 M93 89.86 C76.07 84.16, 58.87 76.26, 31 65 M31 65 C-1.04 51.76, -0.21 53.78, 31 39 M31 65 C-1.84 49.75, 0.13 49.89, 31 39 M31 39 C42.28 34.47, 58.5 28.12, 93 13 M31 39 C49.79 31.67, 66.8 23.74, 93 13 M93 13 C125.52 1.86, 125.37 -1.88, 155 13 M93 13 C121.76 -0.41, 124.06 -1.35, 155 13" stroke="#000000" stroke-width="1" fill="none"></path></g><g transform="translate(841.975777762277 531.2142857142857) rotate(0 52.8099365234375 12)"><text x="52.8099365234375" y="0" font-family="Virgil, Segoe UI Emoji" font-size="20px" fill="#000000" text-anchor="middle" style="white-space: pre;" direction="ltr" dominant-baseline="text-before-edge">invite valid</text></g><g stroke-linecap="round"><g transform="translate(861.3764434349828 118.98849225424968) rotate(0 22.379337787779377 186.48342651231803)"><path d="M0.68 0.67 C8.35 62.62, 37.79 309.82, 45.18 371.77 M-0.42 -0.03 C7.13 62.07, 36.65 310.7, 44.04 372.99" stroke="#000000" stroke-width="1" fill="none"></path></g><g transform="translate(861.3764434349828 118.98849225424968) rotate(0 22.379337787779377 186.48342651231803)"><path d="M31.64 345.6 C32.68 351.44, 36.86 358.35, 42.42 373.32 M31.48 347.19 C36 354.37, 38.68 363.39, 43.55 373.34" stroke="#000000" stroke-width="1" fill="none"></path></g><g transform="translate(861.3764434349828 118.98849225424968) rotate(0 22.379337787779377 186.48342651231803)"><path d="M52.01 343.18 C48.31 349.7, 47.74 357.18, 42.42 373.32 M51.86 344.77 C49.56 352.63, 45.41 362.46, 43.55 373.34" stroke="#000000" stroke-width="1" fill="none"></path></g></g><mask></mask><g stroke-linecap="round" transform="translate(1865.2857142857144 562) rotate(0 73.57142857142856 57.14285714285717)"><path d="M28.57 0 M28.57 0 C54.34 -0.29, 81.19 0.65, 118.57 0 M28.57 0 C46.59 0.73, 66.09 0.14, 118.57 0 M118.57 0 C136.92 -1.23, 148.34 8.94, 147.14 28.57 M118.57 0 C135.91 -0.65, 144.96 10.24, 147.14 28.57 M147.14 28.57 C146.83 47.3, 149.49 69.58, 147.14 85.71 M147.14 28.57 C146.07 42.19, 146.12 57.75, 147.14 85.71 M147.14 85.71 C148.74 106.15, 138.73 115.17, 118.57 114.29 M147.14 85.71 C147.3 104.9, 139.7 116.23, 118.57 114.29 M118.57 114.29 C97.48 114.89, 79.56 112.59, 28.57 114.29 M118.57 114.29 C83.38 114.27, 46.69 114, 28.57 114.29 M28.57 114.29 C8.08 113.73, -1.24 105.05, 0 85.71 M28.57 114.29 C9.33 116.21, 0.94 106.3, 0 85.71 M0 85.71 C-0.86 65.19, 1.67 48.17, 0 28.57 M0 85.71 C-0.51 63.59, 0.23 40.87, 0 28.57 M0 28.57 C-0.45 9.21, 10.3 -0.32, 28.57 0 M0 28.57 C1.57 9.02, 9.41 -1.6, 28.57 0" stroke="#000000" stroke-width="1" fill="none"></path></g><g transform="translate(1895.2472032819476 607.1428571428573) rotate(0 43.60993957519531 12)"><text x="43.60993957519531" y="0" font-family="Virgil, Segoe UI Emoji" font-size="20px" fill="#000000" text-anchor="middle" style="white-space: pre;" direction="ltr" dominant-baseline="text-before-edge">app page</text></g><g stroke-linecap="round" transform="translate(1088.1428571428573 489.1428571428571) rotate(0 83.57142857142856 76.42857142857139)"><path d="M78.21 -0.35 C88.86 -2.34, 100.88 0.69, 111.46 4.33 C122.03 7.98, 133.51 14.38, 141.66 21.53 C149.81 28.69, 156.05 37.72, 160.36 47.28 C164.66 56.84, 167.83 68.36, 167.49 78.88 C167.15 89.39, 163.24 101.16, 158.31 110.38 C153.37 119.61, 146.41 127.48, 137.87 134.22 C129.33 140.95, 118 147.84, 107.09 150.78 C96.17 153.73, 83.72 153.37, 72.41 151.89 C61.09 150.41, 48.76 147.47, 39.21 141.91 C29.65 136.35, 21.42 127.33, 15.08 118.51 C8.73 109.7, 3.38 99.04, 1.14 89.04 C-1.09 79.03, -1.14 68.44, 1.64 58.51 C4.42 48.58, 10.71 37.6, 17.83 29.47 C24.95 21.33, 33.81 14.62, 44.36 9.68 C54.92 4.75, 74.45 1.24, 81.18 -0.15 C87.9 -1.53, 84.77 0.21, 84.73 1.36 M54.47 5.85 C63.97 1.31, 77.15 -0.58, 88.59 0.07 C100.03 0.73, 113.03 4.82, 123.11 9.79 C133.19 14.75, 142.15 21.91, 149.09 29.86 C156.02 37.82, 162.05 47.43, 164.73 57.53 C167.42 67.63, 167.14 80.21, 165.2 90.47 C163.26 100.73, 159.37 110.84, 153.1 119.1 C146.83 127.37, 136.93 134.66, 127.56 140.05 C118.19 145.43, 108 149.6, 96.89 151.44 C85.77 153.27, 71.71 153.94, 60.85 151.07 C50 148.21, 40.66 141.23, 31.75 134.23 C22.84 127.22, 12.49 118.32, 7.4 109.04 C2.31 99.76, 1.35 88.48, 1.23 78.54 C1.11 68.61, 2.72 58.76, 6.69 49.42 C10.65 40.09, 17.06 30.03, 25.01 22.53 C32.97 15.02, 49.44 6.98, 54.43 4.41 C59.42 1.84, 54.47 5.86, 54.95 7.11" stroke="#000000" stroke-width="1" fill="none"></path></g><g transform="translate(1134.040405803294 541.5282674378852) rotate(0 37.5799560546875 24)"><text x="37.5799560546875" y="0" font-family="Virgil, Segoe UI Emoji" font-size="20px" fill="#000000" text-anchor="middle" style="white-space: pre;" direction="ltr" dominant-baseline="text-before-edge">create </text><text x="37.5799560546875" y="24" font-family="Virgil, Segoe UI Emoji" font-size="20px" fill="#000000" text-anchor="middle" style="white-space: pre;" direction="ltr" dominant-baseline="text-before-edge">user!</text></g><g stroke-linecap="round"><g transform="translate(1015.2857142857144 539.1428571428571) rotate(0 34.05865435551925 9.675823838012974)"><path d="M0.68 0.85 C11.95 4.19, 57.22 16.2, 68.54 19.1 M-0.43 0.26 C10.6 3.31, 56.2 14.06, 67.58 17.25" stroke="#000000" stroke-width="1" fill="none"></path></g><g transform="translate(1015.2857142857144 539.1428571428571) rotate(0 34.05865435551925 9.675823838012974)"><path d="M39.15 20.17 C49.87 19.01, 59.69 17.81, 68.73 17.32 M37.45 19.4 C47.09 20, 56.41 19.31, 67.69 17.63" stroke="#000000" stroke-width="1" fill="none"></path></g><g transform="translate(1015.2857142857144 539.1428571428571) rotate(0 34.05865435551925 9.675823838012974)"><path d="M44.23 0.29 C52.88 6.64, 60.79 12.93, 68.73 17.32 M42.53 -0.49 C50.65 6.04, 58.45 11.25, 67.69 17.63" stroke="#000000" stroke-width="1" fill="none"></path></g></g><mask></mask><g stroke-linecap="round" transform="translate(1129.5714285714287 244.8571428571429) rotate(0 77.85714285714289 68.57142857142856)"><path d="M52.75 2.77 C62.43 -1.2, 76.68 -1.41, 87.78 -0.09 C98.88 1.24, 110.09 5.2, 119.35 10.72 C128.62 16.23, 137.39 24.61, 143.37 33 C149.35 41.39, 153.94 51.36, 155.25 61.06 C156.55 70.75, 154.91 81.77, 151.19 91.18 C147.47 100.59, 141.15 110.39, 132.92 117.52 C124.7 124.64, 112.57 130.89, 101.86 133.91 C91.14 136.92, 79.56 136.83, 68.64 135.61 C57.72 134.39, 45.88 131.81, 36.32 126.6 C26.77 121.39, 17.3 112.76, 11.32 104.36 C5.34 95.95, 1.62 86.07, 0.43 76.18 C-0.75 66.29, 0.49 54.54, 4.24 44.99 C7.99 35.45, 13.94 26.19, 22.93 18.91 C31.93 11.62, 51.36 4.21, 58.22 1.3 C65.09 -1.61, 63.63 0.21, 64.13 1.47 M57.02 3.74 C66.5 -0.17, 78.34 -0.93, 89.34 0.37 C100.34 1.67, 113.58 5.48, 123.02 11.55 C132.46 17.63, 140.56 28.04, 146 36.81 C151.43 45.58, 155.19 54.38, 155.64 64.16 C156.08 73.95, 153.17 86.51, 148.65 95.53 C144.14 104.55, 136.59 111.88, 128.53 118.28 C120.48 124.69, 110.94 131.07, 100.34 133.97 C89.74 136.87, 76.01 137.31, 64.94 135.68 C53.86 134.05, 42.86 129.73, 33.87 124.18 C24.88 118.63, 16.42 111.01, 11 102.37 C5.57 93.73, 2.3 82.57, 1.3 72.34 C0.3 62.1, 0.68 50.32, 4.99 40.94 C9.31 31.57, 18.82 22.41, 27.17 16.11 C35.51 9.81, 50.31 5.12, 55.07 3.13 C59.83 1.15, 55.31 3.27, 55.73 4.2" stroke="#000000" stroke-width="1" fill="none"></path></g><g transform="translate(1163.7953016957886 301.44124929006534) rotate(0 43.5799560546875 12)"><text x="43.5799560546875" y="0" font-family="Virgil, Segoe UI Emoji" font-size="20px" fill="#000000" text-anchor="middle" style="white-space: pre;" direction="ltr" dominant-baseline="text-before-edge">send link!</text></g><g stroke-linecap="round" transform="translate(1399.571428571429 256.28571428571433) rotate(0 74.28571428571422 57.85714285714283)"><path d="M28.93 0 M28.93 0 C63.47 -0.66, 99.49 -0.36, 119.64 0 M28.93 0 C60.76 0.2, 91.27 0.49, 119.64 0 M119.64 0 C140.01 -0.25, 149.97 9.02, 148.57 28.93 M119.64 0 C139.71 2.18, 147.05 9.43, 148.57 28.93 M148.57 28.93 C148.23 52.26, 149.34 71.51, 148.57 86.79 M148.57 28.93 C149.17 48.31, 148.72 66.97, 148.57 86.79 M148.57 86.79 C147.62 105.99, 139.61 117.57, 119.64 115.71 M148.57 86.79 C150.46 107.02, 137.73 115.71, 119.64 115.71 M119.64 115.71 C94.52 116.82, 72.85 115.57, 28.93 115.71 M119.64 115.71 C94.11 116.66, 68.4 115.63, 28.93 115.71 M28.93 115.71 C10.9 114.76, -1.97 105.63, 0 86.79 M28.93 115.71 C10.13 114.13, 1.27 108.04, 0 86.79 M0 86.79 C-1.89 66.22, 1.41 45.89, 0 28.93 M0 86.79 C0.8 64.9, -0.29 44.1, 0 28.93 M0 28.93 C1.56 10.05, 8.76 0.38, 28.93 0 M0 28.93 C0.7 9.3, 10.52 2, 28.93 0" stroke="#000000" stroke-width="1" fill="none"></path></g><g transform="translate(1433.2771868024556 302.14285714285717) rotate(0 40.5799560546875 12)"><text x="40.5799560546875" y="0" font-family="Virgil, Segoe UI Emoji" font-size="20px" fill="#000000" text-anchor="middle" style="white-space: pre;" direction="ltr" dominant-baseline="text-before-edge">sent link</text></g><g stroke-linecap="round"><g transform="translate(1292.3416960099582 308.9714105891968) rotate(0 53.094473155944456 0.2820599407916973)"><path d="M-0.01 -0.15 C17.38 -0.3, 87.57 0.16, 105.39 0.29 M-1.48 -1.28 C16.2 -0.71, 89.66 1.88, 107.67 1.84" stroke="#000000" stroke-width="1" fill="none"></path></g><g transform="translate(1292.3416960099582 308.9714105891968) rotate(0 53.094473155944456 0.2820599407916973)"><path d="M79.03 10.16 C90.2 8.97, 101.77 3.27, 108.12 2.76 M78.52 11.84 C89.12 7.89, 99.06 4.22, 108.54 1.08" stroke="#000000" stroke-width="1" fill="none"></path></g><g transform="translate(1292.3416960099582 308.9714105891968) rotate(0 53.094473155944456 0.2820599407916973)"><path d="M79.43 -10.36 C90.65 -3.6, 102.06 -1.36, 108.12 2.76 M78.92 -8.68 C89.33 -5.28, 99.14 -1.61, 108.54 1.08" stroke="#000000" stroke-width="1" fill="none"></path></g></g><mask></mask><g stroke-linecap="round"><g transform="translate(1188.6027456404856 129.37584030244855) rotate(0 7.111244860700026 51.87603204361793)"><path d="M-0.91 0.9 C1.81 18.01, 12.58 85.27, 15.13 102.14 M0.82 0.32 C3.57 17.65, 12.63 86.28, 14.79 103.43" stroke="#000000" stroke-width="1" fill="none"></path></g><g transform="translate(1188.6027456404856 129.37584030244855) rotate(0 7.111244860700026 51.87603204361793)"><path d="M2.48 78.73 C2.89 83, 5.7 88.9, 14.19 104.07 M1.08 77.73 C3.18 83.05, 5.99 87.5, 15.33 103.68" stroke="#000000" stroke-width="1" fill="none"></path></g><g transform="translate(1188.6027456404856 129.37584030244855) rotate(0 7.111244860700026 51.87603204361793)"><path d="M22.83 76.08 C19.07 80.74, 17.72 87.18, 14.19 104.07 M21.43 75.08 C19.38 80.86, 18.03 85.85, 15.33 103.68" stroke="#000000" stroke-width="1" fill="none"></path></g></g><mask></mask><g stroke-linecap="round"><g transform="translate(898.1428571428573 599.1428571428571) rotate(0 -132.29650696943315 -159.52088942203488)"><path d="M0.96 0.22 C-27.26 0.19, -126.23 58.37, -170.49 0.71 C-214.75 -56.95, -249.11 -288.03, -264.61 -345.73 M0 -0.7 C-28.19 -0.68, -126.69 59.16, -170.95 1.87 C-215.21 -55.41, -250.23 -286.73, -265.55 -344.42" stroke="#a61e4d" stroke-width="1" fill="none"></path></g><g transform="translate(898.1428571428573 599.1428571428571) rotate(0 -132.29650696943315 -159.52088942203488)"><path d="M-249.33 -317.39 C-254.27 -324.47, -256.27 -327.73, -265.18 -345.5 M-250.53 -319.28 C-252.5 -325.42, -256.04 -329.55, -265.56 -345.18" stroke="#a61e4d" stroke-width="1" fill="none"></path></g><g transform="translate(898.1428571428573 599.1428571428571) rotate(0 -132.29650696943315 -159.52088942203488)"><path d="M-269.41 -313.16 C-270.36 -321.25, -268.34 -325.35, -265.18 -345.5 M-270.61 -315.05 C-268.07 -322.07, -267.12 -327.15, -265.56 -345.18" stroke="#a61e4d" stroke-width="1" fill="none"></path></g></g><mask></mask><g stroke-linecap="round"><g transform="translate(1503.8571428571431 136.28571428571425) rotate(0 -417.3685536749734 38.56476652478933)"><path d="M-0.24 0.85 C-70.22 10.01, -281.89 42.52, -420.84 55.06 C-559.79 67.6, -765.1 72.43, -833.92 76.1 M-1.83 0.25 C-71.83 9.55, -282.7 43.49, -421.48 56.26 C-560.26 69.03, -765.87 73.22, -834.5 76.88" stroke="#a61e4d" stroke-width="1" fill="none"></path></g><g transform="translate(1503.8571428571431 136.28571428571425) rotate(0 -417.3685536749734 38.56476652478933)"><path d="M-805.31 66.5 C-813.93 68.58, -820.7 71.34, -834.57 78.03 M-806.76 64.75 C-816.03 68.24, -825.28 73.51, -834.25 75.94" stroke="#a61e4d" stroke-width="1" fill="none"></path></g><g transform="translate(1503.8571428571431 136.28571428571425) rotate(0 -417.3685536749734 38.56476652478933)"><path d="M-804.51 87.01 C-813.32 84.56, -820.27 82.8, -834.57 78.03 M-805.96 85.26 C-815.33 82.04, -824.85 80.61, -834.25 75.94" stroke="#a61e4d" stroke-width="1" fill="none"></path></g></g><mask></mask><g stroke-linecap="round" transform="translate(226.7142857142859 963.4285714285713) rotate(0 99.28571428571428 61.42857142857139)"><path d="M125 15.5 M125 15.5 C142.08 24.12, 157.42 35.92, 173.57 46.5 M125 15.5 C138.29 24.12, 149.13 31.02, 173.57 46.5 M173.57 46.5 C196.91 60.87, 196.69 63.42, 173.57 77.5 M173.57 46.5 C200.07 63.05, 200.39 62.68, 173.57 77.5 M173.57 77.5 C157.15 89.29, 142.49 96.56, 125 107.36 M173.57 77.5 C159.27 87.27, 142.82 95.75, 125 107.36 M125 107.36 C100.03 122.27, 101.21 122.13, 75 107.36 M125 107.36 C101.1 123.97, 100.16 121.15, 75 107.36 M75 107.36 C65.13 101.82, 53.21 94.48, 25 77.5 M75 107.36 C63.18 101.49, 51.04 93.31, 25 77.5 M25 77.5 C-0.91 61.57, 1.59 60.09, 25 46.5 M25 77.5 C0.45 62.1, 2.15 59.7, 25 46.5 M25 46.5 C34.58 39.16, 49.63 32.73, 75 15.5 M25 46.5 C42.33 36.08, 60.68 24.82, 75 15.5 M75 15.5 C98.89 -1.84, 101.32 0.42, 125 15.5 M75 15.5 C98.23 0.52, 100.67 0.84, 125 15.5" stroke="#000000" stroke-width="1" fill="none"></path></g><g transform="translate(297.22717612130316 1000.6428571428571) rotate(0 28.629966735839844 24)"><text x="28.629966735839844" y="0" font-family="Virgil, Segoe UI Emoji" font-size="20px" fill="#000000" text-anchor="middle" style="white-space: pre;" direction="ltr" dominant-baseline="text-before-edge">good </text><text x="28.629966735839844" y="24" font-family="Virgil, Segoe UI Emoji" font-size="20px" fill="#000000" text-anchor="middle" style="white-space: pre;" direction="ltr" dominant-baseline="text-before-edge">cookie</text></g><g stroke-linecap="round"><g transform="translate(422.1327274628267 1010.5375440224888) rotate(2.5014868304919555 -126.94416014090685 -74.23116434338283)"><path d="M0.68 1.17 C-20.22 -24.41, -83.88 -153.37, -126.24 -152.75 C-168.59 -152.13, -232.54 -21.29, -253.46 4.91 M-0.42 0.74 C-21.34 -25.22, -84.46 -155.2, -126.82 -154.34 C-169.18 -153.48, -233.88 -20.67, -254.57 5.88" stroke="#000000" stroke-width="1" fill="none"></path></g><g transform="translate(422.1327274628267 1010.5375440224888) rotate(2.5014868304919555 -126.94416014090685 -74.23116434338283)"><path d="M-246.44 -22.3 C-247.94 -17.82, -252.12 -8.26, -256.44 6.85 M-247.96 -24.21 C-249.41 -15.21, -250.62 -9.27, -255.03 4.94" stroke="#000000" stroke-width="1" fill="none"></path></g><g transform="translate(422.1327274628267 1010.5375440224888) rotate(2.5014868304919555 -126.94416014090685 -74.23116434338283)"><path d="M-229.01 -11.46 C-234.58 -9.37, -242.75 -2.29, -256.44 6.85 M-230.53 -13.37 C-236.47 -7.29, -242.14 -4.13, -255.03 4.94" stroke="#000000" stroke-width="1" fill="none"></path></g></g><mask></mask><g stroke-linecap="round"><g transform="translate(168.1428571428574 1045.2830401890906) rotate(0 29.409325573236742 -5.8984822491144655)"><path d="M-0.7 0.24 C8.87 -1.94, 47.26 -10.13, 57.21 -12.04 M1.14 -0.68 C11.11 -2.21, 49.92 -9.39, 59.52 -10.93" stroke="#000000" stroke-width="1" fill="none"></path></g><g transform="translate(168.1428571428574 1045.2830401890906) rotate(0 29.409325573236742 -5.8984822491144655)"><path d="M34.31 2.5 C39.67 1.39, 48.29 -2.67, 58.9 -9.24 M34.83 2.78 C41.78 -0.3, 50.68 -5.86, 59.49 -10.45" stroke="#000000" stroke-width="1" fill="none"></path></g><g transform="translate(168.1428571428574 1045.2830401890906) rotate(0 29.409325573236742 -5.8984822491144655)"><path d="M30.85 -17.4 C37.36 -12.84, 46.96 -11.26, 58.9 -9.24 M31.37 -17.12 C39.56 -13.77, 49.58 -12.9, 59.49 -10.45" stroke="#000000" stroke-width="1" fill="none"></path></g></g><mask></mask><g stroke-linecap="round"><g transform="translate(322.77272310583544 1087.0847866346899) rotate(0 73.69518814733948 -7.12221742280758)"><path d="M0.74 -0.82 C25.36 -3.32, 123.23 -13.43, 147.72 -15.61 M-0.33 1.37 C24.2 -0.93, 122.63 -11.51, 147.25 -14.35" stroke="#a61e4d" stroke-width="1" fill="none"></path></g><g transform="translate(322.77272310583544 1087.0847866346899) rotate(0 73.69518814733948 -7.12221742280758)"><path d="M118.99 0.48 C127.72 -3.77, 138.68 -10.94, 148.18 -15.59 M119.95 -0.19 C128.69 -4.32, 135.42 -9.93, 146.82 -13.9" stroke="#a61e4d" stroke-width="1" fill="none"></path></g><g transform="translate(322.77272310583544 1087.0847866346899) rotate(0 73.69518814733948 -7.12221742280758)"><path d="M116.74 -19.92 C126.05 -17.99, 137.7 -18.97, 148.18 -15.59 M117.7 -20.58 C127.02 -18.77, 134.41 -18.42, 146.82 -13.9" stroke="#a61e4d" stroke-width="1" fill="none"></path></g></g><mask></mask><g stroke-linecap="round" transform="translate(741.714285714286 1008.4285714285711) rotate(0 125 55.00000000000006)"><path d="M157.5 14 M157.5 14 C181.27 25.49, 203.29 36.57, 218.5 42 M157.5 14 C173.73 19.92, 188.89 28.22, 218.5 42 M218.5 42 C251.75 54.67, 251.22 54.33, 218.5 70 M218.5 42 C250.14 57.19, 249.51 53.98, 218.5 70 M218.5 70 C200.27 78.02, 187.46 84.53, 157.5 96 M218.5 70 C203.05 77.14, 187.17 83.27, 157.5 96 M157.5 96 C126.72 108.38, 125.48 110.34, 94.5 96 M157.5 96 C127.9 111.49, 128.02 111.44, 94.5 96 M94.5 96 C76.04 86.64, 56.52 80.87, 31.5 70 M94.5 96 C71.27 86.16, 47.8 77.57, 31.5 70 M31.5 70 C1.42 54.14, 0 57.76, 31.5 42 M31.5 70 C1.48 56.39, -0.52 53.77, 31.5 42 M31.5 42 C44.65 38.62, 57.11 29.83, 94.5 14 M31.5 42 C44.8 35.97, 57.84 29.18, 94.5 14 M94.5 14 C125.1 1.75, 126.97 1.89, 157.5 14 M94.5 14 C123.98 1, 125.27 -1.6, 157.5 14" stroke="#000000" stroke-width="1" fill="none"></path></g><g transform="translate(811.9343555995399 1051.428571428571) rotate(0 54.779930114746094 12)"><text x="54.779930114746094" y="0" font-family="Virgil, Segoe UI Emoji" font-size="20px" fill="#000000" text-anchor="middle" style="white-space: pre;" direction="ltr" dominant-baseline="text-before-edge">user-exists</text></g><g stroke-linecap="round"><g transform="translate(689.5714285714289 1056.2857142857142) rotate(0 28.045186157027615 3.06560277148742)"><path d="M0.01 -1.13 C9.47 0.07, 48.02 4.75, 57.53 6.21 M-1.44 0.9 C7.82 2.3, 47.17 6.49, 56.79 7.26" stroke="#000000" stroke-width="1" fill="none"></path></g><g transform="translate(689.5714285714289 1056.2857142857142) rotate(0 28.045186157027615 3.06560277148742)"><path d="M27.04 15.12 C37.6 11.75, 50.13 11.05, 55.23 5.77 M28.8 13.68 C40.94 11.04, 50.61 8.09, 57.38 6.73" stroke="#000000" stroke-width="1" fill="none"></path></g><g transform="translate(689.5714285714289 1056.2857142857142) rotate(0 28.045186157027615 3.06560277148742)"><path d="M28.92 -4.48 C38.64 -0.7, 50.48 5.77, 55.23 5.77 M30.69 -5.93 C41.94 -0.84, 50.87 3.94, 57.38 6.73" stroke="#000000" stroke-width="1" fill="none"></path></g></g><mask></mask><g stroke-linecap="round" transform="translate(1035.2857142857138 1009.7142857142854) rotate(0 113.5 57.5)"><path d="M142.5 14.5 M142.5 14.5 C162.52 25.43, 184.57 37.23, 198.5 43.5 M142.5 14.5 C157.34 21.01, 172.34 28.83, 198.5 43.5 M198.5 43.5 C228.82 57.17, 225.72 59.48, 198.5 72.5 M198.5 43.5 C224.93 59.85, 227.58 60.18, 198.5 72.5 M198.5 72.5 C180.49 81.7, 163.02 89.63, 142.5 100.5 M198.5 72.5 C179.26 82.28, 157.92 91.45, 142.5 100.5 M142.5 100.5 C115.47 114.48, 114.21 115.84, 85.5 100.5 M142.5 100.5 C113.87 114.55, 111.87 113.45, 85.5 100.5 M85.5 100.5 C72.54 94.64, 59.86 86.63, 28.5 72.5 M85.5 100.5 C65.29 89.96, 42.71 78.73, 28.5 72.5 M28.5 72.5 C1.53 57.59, 0.77 57.24, 28.5 43.5 M28.5 72.5 C-1.6 57.88, 0.52 58.69, 28.5 43.5 M28.5 43.5 C46.5 32.64, 68.21 22.76, 85.5 14.5 M28.5 43.5 C44.38 36.1, 59.33 26.47, 85.5 14.5 M85.5 14.5 C114.64 1.92, 115.96 -1.39, 142.5 14.5 M85.5 14.5 C115.11 -0.23, 115.4 0.33, 142.5 14.5" stroke="#000000" stroke-width="1" fill="none"></path></g><g transform="translate(1099.9557734898153 1043.4642857142853) rotate(0 49.07994079589844 24)"><text x="49.07994079589844" y="0" font-family="Virgil, Segoe UI Emoji" font-size="20px" fill="#000000" text-anchor="middle" style="white-space: pre;" direction="ltr" dominant-baseline="text-before-edge">password </text><text x="49.07994079589844" y="24" font-family="Virgil, Segoe UI Emoji" font-size="20px" fill="#000000" text-anchor="middle" style="white-space: pre;" direction="ltr" dominant-baseline="text-before-edge">supplied</text></g><g stroke-linecap="round" transform="translate(1351.0000000000005 1009.5714285714283) rotate(0 113.57142857142856 58.14285714285711)"><path d="M142.5 14.75 M142.5 14.75 C159.79 25, 176.39 33.02, 198.64 44.25 M142.5 14.75 C163.48 25.45, 184.74 36.46, 198.64 44.25 M198.64 44.25 C225.86 60.48, 225.34 60.61, 198.64 73.75 M198.64 44.25 C227.73 61.18, 227.81 58.76, 198.64 73.75 M198.64 73.75 C179.21 82.28, 158.05 95.45, 142.5 101.54 M198.64 73.75 C181.8 80.72, 167.03 89.49, 142.5 101.54 M142.5 101.54 C114.21 117.12, 113.89 115.89, 85.5 101.54 M142.5 101.54 C111.87 114.74, 112.23 114.95, 85.5 101.54 M85.5 101.54 C69.5 92.8, 55.66 85.14, 28.5 73.75 M85.5 101.54 C67.36 92.04, 51.17 84.26, 28.5 73.75 M28.5 73.75 C0.77 58.24, -1.39 58.9, 28.5 44.25 M28.5 73.75 C0.52 59.69, 0.79 60.4, 28.5 44.25 M28.5 44.25 C47.53 34.37, 62.27 26.28, 85.5 14.75 M28.5 44.25 C49.81 31.72, 71.44 22.61, 85.5 14.75 M85.5 14.75 C115.96 -1.39, 114.96 -0.2, 142.5 14.75 M85.5 14.75 C115.4 0.33, 112.11 -1.58, 142.5 14.75" stroke="#000000" stroke-width="1" fill="none"></path></g><g transform="translate(1415.7057734898162 1043.6428571428569) rotate(0 49.07994079589844 24)"><text x="49.07994079589844" y="0" font-family="Virgil, Segoe UI Emoji" font-size="20px" fill="#000000" text-anchor="middle" style="white-space: pre;" direction="ltr" dominant-baseline="text-before-edge">password </text><text x="49.07994079589844" y="24" font-family="Virgil, Segoe UI Emoji" font-size="20px" fill="#000000" text-anchor="middle" style="white-space: pre;" direction="ltr" dominant-baseline="text-before-edge">correct</text></g><g stroke-linecap="round"><g transform="translate(1258.7622023001059 1072.1336860594179) rotate(0 48.45099116147151 -4.719097645631791)"><path d="M0.7 -0.44 C16.9 -1.66, 81.19 -5.88, 97.3 -7.31 M-0.4 -1.71 C15.64 -3.27, 80.19 -7.92, 96.36 -9" stroke="#000000" stroke-width="1" fill="none"></path></g><g transform="translate(1258.7622023001059 1072.1336860594179) rotate(0 48.45099116147151 -4.719097645631791)"><path d="M68.23 3.25 C78.77 -0.57, 84.35 -3.87, 95.21 -7.18 M68.06 4.01 C76.38 0.8, 83.5 -3.41, 97.09 -8.78" stroke="#000000" stroke-width="1" fill="none"></path></g><g transform="translate(1258.7622023001059 1072.1336860594179) rotate(0 48.45099116147151 -4.719097645631791)"><path d="M66.8 -17.22 C77.78 -14.74, 83.81 -11.72, 95.21 -7.18 M66.63 -16.46 C75.18 -14.39, 82.68 -13.31, 97.09 -8.78" stroke="#000000" stroke-width="1" fill="none"></path></g></g><mask></mask><g stroke-linecap="round"><g transform="translate(992.4285714285716 1063.428571428571) rotate(0 26.658289027994442 1.0010988874488476)"><path d="M-0.08 -0.1 C9.13 0.37, 45.84 2.76, 54.91 3.2 M-1.59 -1.2 C7.55 -1.14, 45.09 0.45, 54.28 1.26" stroke="#000000" stroke-width="1" fill="none"></path></g><g transform="translate(992.4285714285716 1063.428571428571) rotate(0 26.658289027994442 1.0010988874488476)"><path d="M28.05 10.02 C35.79 6.97, 41.69 4.12, 55.29 0.21 M29 8.55 C34.69 7.2, 40.65 6, 54.53 1.71" stroke="#000000" stroke-width="1" fill="none"></path></g><g transform="translate(992.4285714285716 1063.428571428571) rotate(0 26.658289027994442 1.0010988874488476)"><path d="M29.18 -8.54 C36.68 -6.59, 42.28 -4.44, 55.29 0.21 M30.13 -10 C35.7 -6.66, 41.38 -3.14, 54.53 1.71" stroke="#000000" stroke-width="1" fill="none"></path></g></g><mask></mask><g stroke-linecap="round" transform="translate(1601 544.8571428571429) rotate(0 77.14285714285722 76.35714285714289)"><path d="M109.11 6.02 C119.32 9.38, 128.95 19.27, 136.23 27.94 C143.51 36.62, 149.91 47.61, 152.8 58.09 C155.69 68.57, 155.93 80.14, 153.59 90.83 C151.24 101.53, 145.58 113.43, 138.75 122.27 C131.92 131.1, 122.44 138.9, 112.6 143.82 C102.75 148.74, 91.04 151.35, 79.68 151.8 C68.33 152.26, 54.63 151, 44.47 146.55 C34.31 142.1, 25.66 133.65, 18.73 125.08 C11.8 116.51, 5.73 105.86, 2.87 95.11 C0.02 84.37, -0.58 71.32, 1.6 60.61 C3.78 49.89, 9.22 39.7, 15.96 30.84 C22.7 21.98, 32 12.67, 42.02 7.44 C52.05 2.2, 63.1 -1.53, 76.12 -0.57 C89.14 0.38, 111.3 9.2, 120.14 13.2 C128.98 17.19, 129.83 22.32, 129.14 23.4 M72.67 -1.17 C83.1 -3.47, 96.05 0.31, 106.34 4.59 C116.63 8.87, 126.95 16.51, 134.41 24.49 C141.88 32.47, 148.03 41.76, 151.12 52.47 C154.22 63.18, 154.85 77.82, 153 88.74 C151.14 99.66, 146.14 109.16, 139.99 117.99 C133.84 126.81, 125.55 135.78, 116.09 141.69 C106.63 147.6, 94.28 152.58, 83.25 153.44 C72.22 154.3, 60.25 150.93, 49.9 146.85 C39.54 142.77, 28.81 136.75, 21.12 128.98 C13.44 121.2, 7.32 110.61, 3.79 100.18 C0.25 89.75, -1.53 77.58, -0.09 66.38 C1.35 55.18, 5.81 42.28, 12.43 32.95 C19.05 23.63, 30.03 16.04, 39.63 10.42 C49.22 4.79, 64.78 0.73, 70 -0.77 C75.23 -2.28, 70.8 0.07, 70.97 1.39" stroke="#000000" stroke-width="1" fill="none"></path></g><g transform="translate(1631.7346801618426 573.2216322079701) rotate(0 46.35993957519531 48)"><text x="46.35993957519531" y="0" font-family="Virgil, Segoe UI Emoji" font-size="20px" fill="#000000" text-anchor="middle" style="white-space: pre;" direction="ltr" dominant-baseline="text-before-edge">save uid </text><text x="46.35993957519531" y="24" font-family="Virgil, Segoe UI Emoji" font-size="20px" fill="#000000" text-anchor="middle" style="white-space: pre;" direction="ltr" dominant-baseline="text-before-edge">to </text><text x="46.35993957519531" y="48" font-family="Virgil, Segoe UI Emoji" font-size="20px" fill="#000000" text-anchor="middle" style="white-space: pre;" direction="ltr" dominant-baseline="text-before-edge">session </text><text x="46.35993957519531" y="72" font-family="Virgil, Segoe UI Emoji" font-size="20px" fill="#000000" text-anchor="middle" style="white-space: pre;" direction="ltr" dominant-baseline="text-before-edge">cookie</text></g><g stroke-linecap="round"><g transform="translate(1622.4285714285716 73.42857142857142) rotate(0 82.93807300864421 235.42597792027266)"><path d="M1.08 0.01 C28.17 25.09, 146.75 72.06, 163.19 150.57 C179.62 229.08, 109.96 417.4, 99.7 471.08 M0.19 -1.02 C27.1 23.69, 145.42 69.93, 162.41 148.75 C179.41 227.56, 112.77 418.27, 102.15 471.88" stroke="#000000" stroke-width="1" fill="none"></path></g><g transform="translate(1622.4285714285716 73.42857142857142) rotate(0 82.93807300864421 235.42597792027266)"><path d="M99.52 442.55 C101.41 451.13, 99.75 464.82, 103.13 473.44 M98.99 442.53 C101.03 450.79, 101.38 458.62, 101.17 472.01" stroke="#000000" stroke-width="1" fill="none"></path></g><g transform="translate(1622.4285714285716 73.42857142857142) rotate(0 82.93807300864421 235.42597792027266)"><path d="M119.35 447.82 C114.23 454.73, 105.58 466.55, 103.13 473.44 M118.82 447.81 C115.33 454.55, 110.18 460.91, 101.17 472.01" stroke="#000000" stroke-width="1" fill="none"></path></g></g><mask></mask><g stroke-linecap="round"><g transform="translate(1268.1428571428573 579.1428571428571) rotate(0 163.21700052400308 18.78086558663881)"><path d="M1.14 0.45 C55.46 6.82, 272.21 31.86, 326.15 37.92 M0.28 -0.36 C54.47 5.69, 270.95 29.82, 325.44 36.21" stroke="#000000" stroke-width="1" fill="none"></path></g><g transform="translate(1268.1428571428573 579.1428571428571) rotate(0 163.21700052400308 18.78086558663881)"><path d="M297.01 43.95 C306.84 39.19, 314.31 37.22, 326.97 36.61 M296.58 42.77 C301.2 42.22, 308.75 40.95, 324.93 35.39" stroke="#000000" stroke-width="1" fill="none"></path></g><g transform="translate(1268.1428571428573 579.1428571428571) rotate(0 163.21700052400308 18.78086558663881)"><path d="M299.34 23.56 C308.38 25.29, 315.11 29.79, 326.97 36.61 M298.91 22.38 C302.97 25.94, 310.05 28.77, 324.93 35.39" stroke="#000000" stroke-width="1" fill="none"></path></g></g><mask></mask><g stroke-linecap="round"><g transform="translate(1766.7142857142858 627.7142857142857) rotate(0 46.2523544569666 -1.7254730794047077)"><path d="M0.08 0.8 C15.71 -0.1, 78.21 -3.23, 93.84 -4.25 M-1.33 0.18 C14.09 -0.01, 76.96 -1.91, 92.65 -2.7" stroke="#000000" stroke-width="1" fill="none"></path></g><g transform="translate(1766.7142857142858 627.7142857142857) rotate(0 46.2523544569666 -1.7254730794047077)"><path d="M66.21 7.89 C73.31 4.39, 80 0.29, 93.21 -1.48 M63.97 7.77 C75.51 4.95, 85.49 1.07, 92.66 -2.41" stroke="#000000" stroke-width="1" fill="none"></path></g><g transform="translate(1766.7142857142858 627.7142857142857) rotate(0 46.2523544569666 -1.7254730794047077)"><path d="M65.42 -12.61 C72.96 -9.85, 79.89 -7.68, 93.21 -1.48 M63.18 -12.73 C75.11 -7.92, 85.38 -4.16, 92.66 -2.41" stroke="#000000" stroke-width="1" fill="none"></path></g></g><mask></mask><g stroke-linecap="round"><g transform="translate(1583.857142857143 1067.7142857142853) rotate(0 45.04831021071868 -179.90224899128066)"><path d="M1.16 0.9 C16.01 -59.08, 74.9 -300.7, 89.78 -360.71 M0.31 0.33 C14.92 -59.44, 73.78 -299.31, 88.72 -359.54" stroke="#000000" stroke-width="1" fill="none"></path></g><g transform="translate(1583.857142857143 1067.7142857142853) rotate(0 45.04831021071868 -179.90224899128066)"><path d="M93.44 -330.07 C89.81 -339.53, 91.23 -351, 89.94 -359.17 M91.88 -330.19 C92.08 -339.94, 90.16 -349.97, 87.98 -359.35" stroke="#000000" stroke-width="1" fill="none"></path></g><g transform="translate(1583.857142857143 1067.7142857142853) rotate(0 45.04831021071868 -179.90224899128066)"><path d="M73.52 -334.99 C76.98 -342.88, 85.53 -352.59, 89.94 -359.17 M71.95 -335.1 C78.95 -343.06, 83.86 -351.4, 87.98 -359.35" stroke="#000000" stroke-width="1" fill="none"></path></g></g><mask></mask><g stroke-linecap="round" transform="translate(1071.7142857142856 1234.8571428571427) rotate(0 77.85714285714289 68.57142857142856)"><path d="M74.61 0.64 C85.16 -0.6, 98.72 2.13, 109.15 5.99 C119.58 9.86, 129.87 16.29, 137.17 23.83 C144.48 31.37, 150.24 41.7, 152.98 51.24 C155.72 60.78, 155.74 71.4, 153.59 81.06 C151.44 90.72, 146.62 101.35, 140.07 109.21 C133.52 117.06, 124.12 123.64, 114.29 128.21 C104.45 132.77, 92.14 135.96, 81.05 136.6 C69.96 137.24, 57.97 135.83, 47.77 132.06 C37.57 128.28, 27.47 121.38, 19.84 113.96 C12.21 106.54, 4.98 97.29, 1.98 87.55 C-1.02 77.81, -0.5 65.56, 1.83 55.5 C4.17 45.43, 9.53 35.13, 16.01 27.17 C22.5 19.22, 29.13 12.33, 40.73 7.76 C52.33 3.18, 76.56 0.57, 85.62 -0.29 C94.68 -1.15, 95.19 1.32, 95.1 2.59 M111.88 7.56 C122.11 11.2, 132.57 19.47, 139.52 27.43 C146.47 35.39, 151.31 45.78, 153.57 55.32 C155.83 64.87, 155.55 75.48, 153.08 84.71 C150.61 93.95, 145.86 103.28, 138.75 110.72 C131.64 118.17, 120.89 125.05, 110.4 129.36 C99.91 133.67, 86.86 136.47, 75.83 136.61 C64.79 136.75, 54.14 134.48, 44.2 130.19 C34.26 125.91, 23.37 118.71, 16.2 110.89 C9.03 103.06, 3.62 92.91, 1.17 83.24 C-1.27 73.56, -1.38 62.33, 1.53 52.85 C4.45 43.36, 11.52 34.28, 18.67 26.33 C25.82 18.38, 34.18 9.44, 44.44 5.14 C54.69 0.85, 69.03 0.25, 80.18 0.54 C91.34 0.82, 106.1 5.57, 111.35 6.86 C116.61 8.14, 112.29 6.97, 111.7 8.25" stroke="#000000" stroke-width="1" fill="none"></path></g><g transform="translate(1123.2581432746806 1279.4412492900651) rotate(0 26.259971618652344 24)"><text x="26.259971618652344" y="0" font-family="Virgil, Segoe UI Emoji" font-size="20px" fill="#000000" text-anchor="middle" style="white-space: pre;" direction="ltr" dominant-baseline="text-before-edge">send </text><text x="26.259971618652344" y="24" font-family="Virgil, Segoe UI Emoji" font-size="20px" fill="#000000" text-anchor="middle" style="white-space: pre;" direction="ltr" dominant-baseline="text-before-edge">code!</text></g><g stroke-linecap="round" transform="translate(1341.714285714286 1246.2857142857142) rotate(0 74.28571428571422 57.857142857142776)"><path d="M28.93 0 M28.93 0 C61.37 -1.33, 89.79 1.23, 119.64 0 M28.93 0 C60.29 -0.46, 91.96 -1.28, 119.64 0 M119.64 0 C138.94 -1.22, 148.83 9.2, 148.57 28.93 M119.64 0 C136.94 -0.05, 147.47 11.41, 148.57 28.93 M148.57 28.93 C147.53 51.28, 150.1 68.57, 148.57 86.79 M148.57 28.93 C147.74 52.35, 147.46 74.76, 148.57 86.79 M148.57 86.79 C147.44 107.15, 139.31 117.55, 119.64 115.71 M148.57 86.79 C147.76 104.17, 138.09 116.38, 119.64 115.71 M119.64 115.71 C92.58 114.84, 62.34 116.24, 28.93 115.71 M119.64 115.71 C98.9 114.56, 80.31 115.04, 28.93 115.71 M28.93 115.71 C9.31 115.93, -0.79 106.28, 0 86.79 M28.93 115.71 C8.7 116.14, 1.75 107.77, 0 86.79 M0 86.79 C1.22 69.65, 0.15 55.33, 0 28.93 M0 86.79 C0.83 68.93, 0.73 53.26, 0 28.93 M0 28.93 C-0.81 10, 7.79 0.74, 28.93 0 M0 28.93 C-0.21 9.85, 9.72 0.65, 28.93 0" stroke="#000000" stroke-width="1" fill="none"></path></g><g transform="translate(1368.0600509643557 1292.1428571428569) rotate(0 47.93994903564453 12)"><text x="47.93994903564453" y="0" font-family="Virgil, Segoe UI Emoji" font-size="20px" fill="#000000" text-anchor="middle" style="white-space: pre;" direction="ltr" dominant-baseline="text-before-edge">sent code</text></g><g stroke-linecap="round"><g transform="translate(1234.4845531528151 1298.9714105891967) rotate(0 53.040963579148865 -0.15199273731718677)"><path d="M-0.84 -0.04 C17 -0.1, 89 0.65, 106.92 0.8 M0.92 -1.11 C18.67 -1.02, 88.8 -1.04, 106.34 -1.05" stroke="#000000" stroke-width="1" fill="none"></path></g><g transform="translate(1234.4845531528151 1298.9714105891967) rotate(0 53.040963579148865 -0.15199273731718677)"><path d="M78.08 10.38 C87.15 7.17, 95.5 3.8, 106.33 0.31 M78.28 9 C83.42 7.14, 89.93 5.7, 106.87 -0.25" stroke="#000000" stroke-width="1" fill="none"></path></g><g transform="translate(1234.4845531528151 1298.9714105891967) rotate(0 53.040963579148865 -0.15199273731718677)"><path d="M78.08 -10.15 C87.35 -7.36, 95.7 -4.75, 106.33 0.31 M78.28 -11.52 C83.41 -8.92, 89.93 -5.9, 106.87 -0.25" stroke="#000000" stroke-width="1" fill="none"></path></g></g><mask></mask><g stroke-linecap="round"><g transform="translate(1152.4285714285716 1129.1428571428569) rotate(0 -1.6727778805034177 52.58674940763228)"><path d="M-0.74 -0.35 C-1.43 17.32, -2.84 89, -3.26 106.75 M1.07 -1.58 C0.12 15.71, -3.54 87.57, -4.42 105.17" stroke="#000000" stroke-width="1" fill="none"></path></g><g transform="translate(1152.4285714285716 1129.1428571428569) rotate(0 -1.6727778805034177 52.58674940763228)"><path d="M-13.82 75.83 C-8.06 86.62, -5.8 99.3, -3.89 104.59 M-12.38 77.48 C-9.63 87.75, -7.21 98.89, -4.03 104.44" stroke="#000000" stroke-width="1" fill="none"></path></g><g transform="translate(1152.4285714285716 1129.1428571428569) rotate(0 -1.6727778805034177 52.58674940763228)"><path d="M6.67 76.87 C4.8 87.14, -0.56 99.44, -3.89 104.59 M8.12 78.51 C3.09 88.51, -2.26 99.26, -4.03 104.44" stroke="#000000" stroke-width="1" fill="none"></path></g></g><mask></mask><g stroke-linecap="round"><g transform="translate(865.2857142857144 1119.1428571428569) rotate(0 -121.69262663370796 42.64370890782732)"><path d="M0.25 0.8 C-15.55 14.81, -54.2 80.85, -94.84 83.74 C-135.49 86.63, -218.78 29.21, -243.64 18.16 M-1.07 0.17 C-16.96 14.38, -55.32 81.81, -95.34 84.99 C-135.35 88.17, -216.32 30.43, -241.16 19.26" stroke="#a61e4d" stroke-width="1" fill="none"></path></g><g transform="translate(865.2857142857144 1119.1428571428569) rotate(0 -121.69262663370796 42.64370890782732)"><path d="M-210.24 25.65 C-221.34 21.48, -230 19.42, -243.06 20.63 M-211.14 23.39 C-223.27 22.2, -233.89 20.77, -242.08 18.91" stroke="#a61e4d" stroke-width="1" fill="none"></path></g><g transform="translate(865.2857142857144 1119.1428571428569) rotate(0 -121.69262663370796 42.64370890782732)"><path d="M-220.34 43.51 C-228.36 33.96, -233.98 26.54, -243.06 20.63 M-221.25 41.26 C-229.42 33.25, -236.16 24.96, -242.08 18.91" stroke="#a61e4d" stroke-width="1" fill="none"></path></g></g><mask></mask><g stroke-linecap="round"><g transform="translate(1468.1428571428573 1129.1428571428569) rotate(0 -395.57787579088006 17.057340386071473)"><path d="M0.59 0.82 C-65.72 6.34, -264.82 33.05, -396.69 33.88 C-528.56 34.72, -724.98 10.71, -790.64 5.83 M-0.56 0.21 C-67.1 5.34, -265.54 31.13, -397.4 32.3 C-529.27 33.47, -726.18 11.74, -791.75 7.21" stroke="#a61e4d" stroke-width="1" fill="none"></path></g><g transform="translate(1468.1428571428573 1129.1428571428569) rotate(0 -395.57787579088006 17.057340386071473)"><path d="M-761.41 0.14 C-772.59 1.59, -785.68 4.65, -793.64 5.48 M-761.84 -1.54 C-774.23 2.2, -785.52 5.04, -792.27 7.36" stroke="#a61e4d" stroke-width="1" fill="none"></path></g><g transform="translate(1468.1428571428573 1129.1428571428569) rotate(0 -395.57787579088006 17.057340386071473)"><path d="M-763.16 20.59 C-773.78 13.85, -786.17 8.74, -793.64 5.48 M-763.59 18.91 C-775.51 14.91, -786.13 9.99, -792.27 7.36" stroke="#a61e4d" stroke-width="1" fill="none"></path></g></g><mask></mask></svg>